<svg id="Layer_1_copy_2" data-name="Layer 1 copy 2" xmlns="http://www.w3.org/2000/svg" viewBox="0 0 312.33 317.13"><defs><style>.cls-1{fill:#3d75e9;}.cls-2,.cls-3,.cls-4,.cls-5{fill:none;stroke-width:11px;}.cls-2,.cls-3{stroke:#00074d;}.cls-2,.cls-3,.cls-5{stroke-linecap:round;}.cls-2{stroke-miterlimit:10;}.cls-3,.cls-4,.cls-5{stroke-linejoin:round;}.cls-4,.cls-5{stroke:#ff951f;}</style></defs><polygon class="cls-1" points="184.17 263 61.45 246.12 60.77 264.11 177.35 268.65 184.17 263"/><polygon class="cls-1" points="184.17 221.3 61.45 204.42 60.77 222.41 177.35 226.95 184.17 221.3"/><polygon class="cls-1" points="184.17 177.51 61.45 160.63 60.77 178.63 177.35 183.16 184.17 177.51"/><polygon class="cls-1" points="184.17 305.98 61.45 289.1 60.77 307.1 177.35 311.63 184.17 305.98"/><polygon class="cls-1" points="57.56 282.54 10.54 247.5 54.09 301.2 57.56 282.54"/><polygon class="cls-1" points="57.56 238.83 10.54 203.8 54.09 257.5 57.56 238.83"/><polygon class="cls-1" points="57.56 197.02 10.54 161.98 54.09 215.69 57.56 197.02"/><polygon class="cls-1" points="57.56 155.17 10.54 120.13 54.09 173.83 57.56 155.17"/><polygon class="cls-1" points="61.45 117.84 12.31 76.5 53.08 130.76 59.08 135.76 60.77 135.84 177.35 140.38 184.17 134.73 61.45 117.84"/><path class="cls-2" d="M233.38,392.87l-142.52-1c-.92-.91,0-171.91,0-171.91l126.22,1" transform="translate(-32.92 -81.24)"/><polyline class="cls-2" points="5.5 122.83 57.94 182.16 184.17 183.16"/><polyline class="cls-2" points="5.5 205.5 56.03 267.36 184.17 268.43"/><polyline class="cls-2" points="5.5 163.43 57.94 225.61 184.17 226.61"/><polyline class="cls-3" points="57.94 138.72 5.5 76.5 5.5 247.5 57.94 310.63"/><polyline class="cls-4" points="200.46 311.63 259.13 311.63 259.13 268.43 207.87 268.43 207.87 76.5 245.8 76.5 245.8 268.65"/><polyline class="cls-4" points="207.87 311.63 207.87 268.43 245.8 228.91 207.87 188.83 245.8 148.61 207.87 113.94 245.8 76.5"/><polyline class="cls-5" points="306.83 76.5 47.28 76.5 204.31 48.76"/><polygon class="cls-4" points="192.46 76.5 226.83 5.5 261.8 76.5 192.46 76.5"/><line class="cls-4" x1="227.13" y1="14.98" x2="227.13" y2="76.5"/></svg>