<svg id="Layer_1" data-name="Layer 1" xmlns="http://www.w3.org/2000/svg" viewBox="0 0 551.31 323.7"><defs><style>.cls-1{fill:#d34a05;}</style></defs><path class="cls-1" d="M113.83,229.33a20,20,0,0,0-3.7-.68c-.22,0-.43,0-.65,0a16.56,16.56,0,0,0-3.84.27c-.09,0-.17,0-.26,0-25.62,5.28-27.42,64.37-15.95,120s36.48,109.19,62.09,103.91c.13,0,.22-.09.34-.12.34-.08.66-.18,1-.28l0,.12.9-.39c.51-.18,1-.42,1.49-.65.23-.1.46-.18.69-.3l0,0L633.34,244.6l-2.41-6.48-.33-6.84-515.91-1.7h0c-.28-.1-.55-.14-.83-.22Zm29.88,14.22a56,56,0,0,0-3.84,11.26c-.69-1.17-1.4-2.22-2.1-3.33-.28-.43-.54-.87-.82-1.29-1.56-2.39-3.14-4.64-4.75-6.68Zm161.24.53c-2.6,5-4,11.76-4.53,19.34l-6.61.64c-3.43-7.82-7.32-14.78-11.56-20.05Zm53.79.18c-2,3.68-3.22,8.49-3.78,13.85l-13.6,1.32a71.63,71.63,0,0,0-9.13-15.25ZM379,339.58,353.7,350.5a68,68,0,0,0,2.67-18.35l12.92-4.09c2.87,5.05,6.11,9.06,9.67,11.52Zm-46.49-65.32a157.78,157.78,0,0,1,5.08,16.86l-21.33,4.39A152.27,152.27,0,0,1,314.14,276Zm-18-12.21c.67-6.34,2-10.56,3.44-12.16,2.09,1,5.24,4.7,8.61,11Zm10.27,65.52a150,150,0,0,1-5.73-18.47l21.28-4.39a157,157,0,0,1,2,17.32Zm17.31,9.1c-.66,7-2.11,11.5-3.54,13.19-1.87-.92-4.72-4.12-7.85-9.59Zm-181.9,65.67c-.05,1.06-.11,2.09-.18,3.12-.13,2-.28,3.88-.48,5.7-.09.83-.19,1.65-.29,2.45-.23,1.88-.5,3.67-.8,5.34-.09.51-.17,1-.27,1.51q-.54,2.78-1.19,5.14c-.06.26-.13.55-.2.81a43.44,43.44,0,0,1-1.56,4.61c0,.11-.08.24-.13.35a27.44,27.44,0,0,1-1.84,3.72s0,0,0,.05c-1.32,2.14-2.71,3.46-4.1,3.92l-.29.12-.12.05c-2.66.55-6.63-1.85-11.24-7.12-4.8-5.62-10.18-14.39-15.47-25.9l38.37-12.13c0,.66,0,1.31,0,2,0,2.17-.07,4.28-.17,6.3Zm13.28-27s0-.07,0-.1c-.39-5.33-1-10.77-1.68-16.26-.14-1.16-.32-2.31-.48-3.46q-.93-6.75-2.14-13.52c-.12-.66-.19-1.32-.31-2L198.31,334c1.91,8.13,4.06,16.2,6.63,23.81.24,2.58.42,5.05.57,7.47Zm45.07-20.62c-.78-8-2-16.1-3.49-24.22l32.76-6.75a231,231,0,0,1,3.3,27.06l-30.47,9.63c-.71-1.84-1.41-3.73-2.1-5.72Zm-6.28-37.83c-1.85-8.08-3.95-16.14-6.41-23.87-.15-2.22-.26-4.35-.34-6.44l31.65-3.08A231.52,231.52,0,0,1,245,310.18Zm-20.13-21.18c.66,8.17,1.89,16.48,3.36,24.64l-29.43,6.07c-.16-.69-.36-1.36-.52-2-1.06-4.59-2.21-9.1-3.44-13.58-.31-1.14-.6-2.27-.93-3.39-1.56-5.46-3.2-10.83-5-16l33.33-3.25c.9,2.45,1.77,4.95,2.63,7.57Zm-87.5,57.54L144.68,345a285,285,0,0,0,10.7,36.06l-38.77,12.25a294.72,294.72,0,0,1-11.79-39.22c-.07-.28-.12-.56-.19-.84Zm69.53,36.44,31.71-10c-.31,22.77-5.09,35.74-9.69,37.18-4.52.47-13.23-8.39-22-26.78,0-.12,0-.25,0-.38Zm77.18-24.39c-.54,17.41-4.18,27.55-7.71,29.2-3.69-.11-10.46-7.15-17.43-21.26ZM272.7,344a187.43,187.43,0,0,1-7.29-23.87l28.67-5.91a188.11,188.11,0,0,1,2.6,22.2Zm24.05,7c-.68,12.12-3.18,19.44-5.65,21.21-2.8-.61-7.59-5.71-12.68-15.41Zm13.14-23.61c.51,1.49,1,3,1.57,4.4l-1.15.37c-.12-1.59-.25-3.17-.42-4.77ZM354,301.91l5.11-1.05a140.52,140.52,0,0,0,4.45,14.47L356,317.71c-.42-5.2-1.11-10.52-2-15.8Zm-2.8-13.61c-1.24-5.06-2.73-10.3-4.48-15.44l8-.78a140,140,0,0,0,1.6,15.17Zm-50.51-5.9q-.78-2.46-1.61-4.89l1.3-.13c.07,1.67.18,3.35.31,5Zm-9.34,18.24-28.7,5.91a189.73,189.73,0,0,1-2.78-25.23l25-2.43a193.15,193.15,0,0,1,6.49,21.75ZM260,267.35c.77-10.75,3-17.62,5.52-19.3,3.17.59,8.34,6.7,13.63,17.43Zm-54.44,5.31c.76-15.24,3.88-24.84,7.52-26.44,4.23,0,11.47,8.55,18.6,23.89ZM151.14,278l0-.08c.69-19.73,4.73-32.07,9.51-33.5,5.26-.61,14.57,10.42,23.48,30.37Zm-14.57,1.42-39.83,3.89c0-.22,0-.44,0-.65.06-2.18.16-4.28.28-6.3l.09-1.28c.14-2,.32-4,.53-5.82l.12-1.14c.21-1.79.47-3.47.74-5.08.06-.38.12-.8.19-1.17.27-1.49.57-2.86.88-4.19.1-.42.19-.88.29-1.29.3-1.16.62-2.21.95-3.24.15-.44.28-1,.43-1.37.31-.86.64-1.59,1-2.33.2-.46.39-1,.6-1.39.3-.59.62-1.05.93-1.55s.5-.88.76-1.23a8.46,8.46,0,0,1,1-1,10.3,10.3,0,0,1,.81-.81h6a28.44,28.44,0,0,1,7.56,6.72c5.2,6.25,11.07,16.17,16.73,29.22Zm-34.92,59.43c-.59-3.15-1.1-6.23-1.57-9.27-.1-.67-.21-1.36-.31-2-.42-2.85-.78-5.62-1.12-8.36-.1-.86-.23-1.76-.32-2.61-.27-2.37-.48-4.66-.68-7-.1-1.12-.22-2.28-.3-3.39-.15-2-.25-3.91-.35-5.83-.06-1.06-.13-2.13-.17-3.16l40.5-3.94a284.85,284.85,0,0,0,4.52,38.17l-40,8.25c0-.29-.11-.59-.16-.88ZM170.1,430c.75-2.62,1.37-5.45,1.91-8.41.07-.37.11-.75.18-1.12.28-1.63.57-3.23.79-4.94a54.53,54.53,0,0,0,8.7,9.47Zm49.22-40.35a55.63,55.63,0,0,0,11.69,14L216,410.13a99.67,99.67,0,0,0,3.37-20.49Zm46-27.76c4.47,9,9.55,16.11,15,20.38l-18.4,8c2.31-7.8,3.36-17.56,3.38-28.35Zm45.51-15.35,6.24-2c3.71,7.16,7.92,12.95,12.51,16.38l-21.74,9.41c2-6.59,2.93-14.8,3-23.82ZM383,323.72l4.3-1.36a22.92,22.92,0,0,1-1.32,5.15,21.45,21.45,0,0,1-3-3.79Zm-6.22-12.6a119.23,119.23,0,0,1-4.14-13.07l13.91-2.87a119.18,119.18,0,0,1,1.29,12.44Zm-6.95-26.68a122,122,0,0,1-1.43-13.71l11.66-1.13a116,116,0,0,1,3.7,12l-13.93,2.87Zm-.78-27.72a22.64,22.64,0,0,1,1.31-5,24.57,24.57,0,0,1,3.44,4.54ZM251.25,243.89C248.16,250,246.5,258.45,246,268c-4.11-9.53-8.75-17.91-13.77-24.19Zm-53.77-.17a58.34,58.34,0,0,0-4.78,16.69,103.56,103.56,0,0,0-10.53-16.74Zm202.14,86.9a50.14,50.14,0,0,0,2.24-12.86l101.66-32.12Zm1.94-27.33c-.31-3.63-.78-7.29-1.37-10.92L503.5,271.08Zm-4.17-24.52c-.86-3.4-1.9-7-3.1-10.56l103-10Zm-8.57-24a54.89,54.89,0,0,0-6.57-10.46l110.17.37Z" transform="translate(-82.68 -129.5)"/><path d="M91.43,129.5h27.06q.89,0,1.34,7.16l1.34,9.39-.22.22H106.64v50.09h14.08l.45.44q-1.85,16.56-2.46,16.55h-27a2.33,2.33,0,0,1-2-1.34V131.29A1.58,1.58,0,0,1,91.43,129.5Z" transform="translate(-82.68 -129.5)"/><path d="M128.72,129.5H167c1.34,0,2,1.05,2,3.13v78c0,1.79-.75,2.68-2.24,2.68H128.94a2.3,2.3,0,0,1-2-1.34V131.29A1.58,1.58,0,0,1,128.72,129.5Zm15,16.77v50.09H152V146.27Z" transform="translate(-82.68 -129.5)"/><path d="M175.23,129.5h16.1q1.33,2,12.52,34h.22V130l.45-.45h16.1l.44.45v83l-.44.45h-16.1q-.74,0-8.05-21.46-.39-.22-4.7-12.75h-.22V212.9l-.45.45H175.23l-.45-.45V130Z" transform="translate(-82.68 -129.5)"/><path d="M229.22,129.5H259q.62,0,2.46,16.55l-.22.22H244.65v8.27H259c1.64,0,2.46.68,2.46,2v54.78c-.18,1.34-.86,2-2,2H230.34q-.66,0-2.46-16.77l.23-.22h16.54V171.54H230.57c-1.79,0-2.69-.67-2.69-2V131.29A1.89,1.89,0,0,1,229.22,129.5Z" transform="translate(-82.68 -129.5)"/><path d="M267.35,129.5h49.41l.45.45v15.87l-.45.45H300.44V212.9l-.45.45H284.12l-.45-.45V146.27H267.35l-.45-.45V130Z" transform="translate(-82.68 -129.5)"/><path d="M324,129.5h39.58a1.58,1.58,0,0,1,1.79,1.79V170.2a2.86,2.86,0,0,1-2.68,1.34h-4.92q11.17,40.69,11.18,41.81H351.7q-.51,0-5.37-19.45l-5.81-21.69h-.22V212.9l-.45.45H324l-.44-.45V130Zm16.33,16.77v8.27h8.27v-8.27Z" transform="translate(-82.68 -129.5)"/><path d="M375.34,129.5h15.88l.45.45v66.41h8.27V130l.45-.45h16.1l.44.45v80.72c0,1.79-.74,2.68-2.23,2.68H376.91a2.3,2.3,0,0,1-2-1.34V130Z" transform="translate(-82.68 -129.5)"/><path d="M424.54,129.5h27c.6,0,1,2.39,1.34,7.16l1.34,9.39-.22.22H439.74v50.09h14.09l.44.44q-1.84,16.56-2.46,16.55H424.76a2.3,2.3,0,0,1-2-1.34V131.29A1.58,1.58,0,0,1,424.54,129.5Z" transform="translate(-82.68 -129.5)"/><path d="M460.48,129.5h49.41l.45.45v15.87l-.45.45H493.57V212.9l-.45.45H477.25l-.45-.45V146.27H460.48l-.45-.45V130Z" transform="translate(-82.68 -129.5)"/><path d="M517.1,129.5H533l.45.45v83l-.45.45H517.1l-.44-.45V130Z" transform="translate(-82.68 -129.5)"/><path d="M541.64,129.5h38.24c1.34,0,2,1.05,2,3.13v78c0,1.79-.74,2.68-2.23,2.68H541.87a2.3,2.3,0,0,1-2-1.34V131.29A1.58,1.58,0,0,1,541.64,129.5Zm15,16.77v50.09h8.28V146.27Z" transform="translate(-82.68 -129.5)"/><path d="M588.15,129.5h16.1q1.34,2,12.52,34H617V130l.44-.45h16.1l.45.45v83l-.45.45h-16.1q-.72,0-8.05-21.46-.39-.22-4.69-12.75h-.23V212.9l-.44.45H588.15l-.45-.45V130Z" transform="translate(-82.68 -129.5)"/><path d="M399.68,326.29h49.75q.85,0,12.86,25.72v75.47q0,1.69-12.86,25.73H399.68l-.67-.68V327Zm24.71,25.38v75.81h12.52V351.67Z" transform="translate(-82.68 -129.5)"/><path d="M520.93,326.29q1.27,1.35,9.14,32.83l25.38,93.75-.34.34H529.39q-.76-.93-4.06-12.87H493.18q-3,12.87-4.06,12.87H464.07l-.67-.68q32.82-123,34.18-126.24Zm-11.84,54.15L500,415h18.61l-9.14-34.52Z" transform="translate(-82.68 -129.5)"/><path d="M567.81,326.29h57.87q3,0,3.05,4.74V449.14q0,4.07-3.39,4.07H568.15a3.49,3.49,0,0,1-3-2V329A2.39,2.39,0,0,1,567.81,326.29Zm22.67,25.38v75.81H603V351.67Z" transform="translate(-82.68 -129.5)"/></svg>